<?xml version="1.0" standalone="no"?><svg xmlns="http://www.w3.org/2000/svg" viewBox="0 0 1440 320"><path fill="#fff" fill-opacity="1" d="M0,256L40,224C80,192,160,128,240,122.7C320,117,400,171,480,202.7C560,235,640,245,720,218.7C800,192,880,128,960,106.7C1040,85,1120,107,1200,128C1280,149,1360,171,1400,181.3L1440,192L1440,320L1400,320C1360,320,1280,320,1200,320C1120,320,1040,320,960,320C880,320,800,320,720,320C640,320,560,320,480,320C400,320,320,320,240,320C160,320,80,320,40,320L0,320Z"></path></svg>